Gait_medial_07_analogdata.mot
version=1
nRows=43
nColumns=19
inDegrees=yes
endheader
time	1_ground_force_vx	1_ground_force_vy	1_ground_force_vz	1_ground_force_px	1_ground_force_py	1_ground_force_pz	1_ground_torque_x	1_ground_torque_y	1_ground_torque_z	2_ground_force_vx	2_ground_force_vy	2_ground_force_vz	2_ground_force_px	2_ground_force_py	2_ground_force_pz	2_ground_torque_x	2_ground_torque_y	2_ground_torque_z
0.465000	-18.055375	504.071136	-17.814433	-0.156936	0.000000	-0.244481	-0.056919	1.589079	-0.056160	0.000000	0.000000	-0.000000	-0.200000	0.000000	0.302000	0.000000	0.000000	-0.000000
0.466000	-17.877204	505.120880	-17.814433	-0.156353	0.000000	-0.244436	-0.067450	1.905816	-0.067214	0.000000	0.000000	-0.000000	-0.200000	0.000000	0.302000	0.000000	0.000000	-0.000000
0.467000	-17.788118	504.071136	-17.106679	-0.154045	0.000000	-0.245022	-0.053885	1.526969	-0.051821	0.000000	0.000000	-0.000000	-0.200000	0.000000	0.302000	0.000000	0.000000	-0.000000
0.468000	-17.253602	498.822296	-16.487395	-0.155532	0.000000	-0.243163	-0.057971	1.676021	-0.055397	0.000000	0.000000	-0.000000	-0.200000	0.000000	0.302000	0.000000	0.000000	-0.000000
0.469000	-16.719089	506.870514	-17.991372	-0.156595	0.000000	-0.243061	-0.053379	1.618272	-0.057441	0.000000	0.000000	-0.000000	-0.200000	0.000000	0.302000	0.000000	0.000000	-0.000000
0.470000	-18.857146	507.570343	-17.283618	-0.156801	0.000000	-0.242432	-0.061501	1.655402	-0.056369	0.000000	0.000000	-0.000000	-0.200000	0.000000	0.302000	0.000000	0.000000	-0.000000
0.471000	-17.966289	507.570343	-17.195149	-0.156351	0.000000	-0.242717	-0.068361	1.931297	-0.065427	0.000000	0.000000	-0.000000	-0.200000	0.000000	0.302000	0.000000	0.000000	-0.000000
0.472000	-17.609947	504.770966	-16.664332	-0.155344	0.000000	-0.243185	-0.052264	1.498099	-0.049458	0.000000	0.000000	-0.000000	-0.200000	0.000000	0.302000	0.000000	0.000000	-0.000000
0.473000	-17.699031	501.271759	-15.956579	-0.155828	0.000000	-0.242069	-0.058458	1.655639	-0.052703	0.000000	0.000000	-0.000000	-0.200000	0.000000	0.302000	0.000000	0.000000	-0.000000
0.474000	-16.897260	510.019806	-16.752803	-0.157161	0.000000	-0.241520	-0.051958	1.568274	-0.051514	0.000000	0.000000	-0.000000	-0.200000	0.000000	0.302000	0.000000	0.000000	-0.000000
0.475000	-19.658920	510.019806	-16.398925	-0.157088	0.000000	-0.241180	-0.062431	1.619666	-0.052078	0.000000	0.000000	-0.000000	-0.200000	0.000000	0.302000	0.000000	0.000000	-0.000000
0.476000	-17.609947	510.019806	-15.956579	-0.156798	0.000000	-0.240815	-0.059574	1.725395	-0.053981	0.000000	0.000000	-0.000000	-0.200000	0.000000	0.302000	0.000000	0.000000	-0.000000
0.477000	-17.253603	508.970032	-14.806479	-0.156517	0.000000	-0.241573	-0.048743	1.437897	-0.041830	0.000000	0.000000	-0.000000	-0.200000	0.000000	0.302000	0.000000	0.000000	-0.000000
0.478000	-17.075431	504.071136	-15.337294	-0.156230	0.000000	-0.241923	-0.052284	1.543448	-0.046962	0.000000	0.000000	-0.000000	-0.200000	0.000000	0.302000	0.000000	0.000000	-0.000000
0.479000	-16.540916	511.419495	-14.452602	-0.157290	0.000000	-0.240245	-0.052166	1.612895	-0.045580	0.000000	0.000000	-0.000000	-0.200000	0.000000	0.302000	0.000000	0.000000	-0.000000
0.480000	-19.302578	513.169128	-15.514234	-0.157011	0.000000	-0.239917	-0.054707	1.454410	-0.043970	0.000000	0.000000	-0.000000	-0.200000	0.000000	0.302000	0.000000	0.000000	-0.000000
0.481000	-16.630003	512.469238	-15.337294	-0.156729	0.000000	-0.239384	-0.053290	1.642170	-0.049147	0.000000	0.000000	-0.000000	-0.200000	0.000000	0.302000	0.000000	0.000000	-0.000000
0.482000	-17.075431	511.069580	-14.983417	-0.157620	0.000000	-0.238944	-0.050737	1.518579	-0.044521	0.000000	0.000000	-0.000000	-0.200000	0.000000	0.302000	0.000000	0.000000	-0.000000
0.483000	-16.630003	506.520599	-14.894949	-0.156087	0.000000	-0.240656	-0.048630	1.481172	-0.043556	0.000000	0.000000	-0.000000	-0.200000	0.000000	0.302000	0.000000	0.000000	-0.000000
0.484000	-16.095488	514.568787	-13.037095	-0.157632	0.000000	-0.238733	-0.050073	1.600808	-0.040558	0.000000	0.000000	-0.000000	-0.200000	0.000000	0.302000	0.000000	0.000000	-0.000000
0.485000	-18.589891	516.668335	-15.337295	-0.157516	0.000000	-0.238099	-0.052557	1.460729	-0.043362	0.000000	0.000000	-0.000000	-0.200000	0.000000	0.302000	0.000000	0.000000	-0.000000
0.486000	-16.897260	516.318420	-14.010256	-0.156989	0.000000	-0.237704	-0.054144	1.654427	-0.044893	0.000000	0.000000	-0.000000	-0.200000	0.000000	0.302000	0.000000	0.000000	-0.000000
0.487000	-16.808174	515.268677	-13.479440	-0.158123	0.000000	-0.237471	-0.045409	1.392063	-0.036416	0.000000	0.000000	-0.000000	-0.200000	0.000000	0.302000	0.000000	0.000000	-0.000000
0.488000	-15.739145	509.669891	-13.921787	-0.156513	0.000000	-0.238671	-0.043114	1.396139	-0.038136	0.000000	0.000000	-0.000000	-0.200000	0.000000	0.302000	0.000000	0.000000	-0.000000
0.489000	-15.560973	514.918701	-12.948625	-0.157451	0.000000	-0.236540	-0.046768	1.547556	-0.038916	0.000000	0.000000	-0.000000	-0.200000	0.000000	0.302000	0.000000	0.000000	-0.000000
0.490000	-16.808174	517.718079	-14.452602	-0.157617	0.000000	-0.236075	-0.041364	1.274073	-0.035567	0.000000	0.000000	-0.000000	-0.200000	0.000000	0.302000	0.000000	0.000000	-0.000000
0.491000	-16.540916	519.817627	-14.010256	-0.157494	0.000000	-0.235909	-0.050137	1.575614	-0.042466	0.000000	0.000000	-0.000000	-0.200000	0.000000	0.302000	0.000000	0.000000	-0.000000
0.492000	-16.540916	518.767883	-13.390972	-0.158267	0.000000	-0.235943	-0.043647	1.368897	-0.035335	0.000000	0.000000	-0.000000	-0.200000	0.000000	0.302000	0.000000	0.000000	-0.000000
0.493000	-15.828231	514.218872	-13.125563	-0.157115	0.000000	-0.235643	-0.043053	1.398668	-0.035701	0.000000	0.000000	-0.000000	-0.200000	0.000000	0.302000	0.000000	0.000000	-0.000000
0.494000	-15.026459	512.819214	-11.621586	-0.157218	0.000000	-0.234123	-0.042066	1.435602	-0.032534	0.000000	0.000000	-0.000000	-0.200000	0.000000	0.302000	0.000000	0.000000	-0.000000
0.495000	-15.115544	520.517517	-13.390972	-0.157929	0.000000	-0.234021	-0.032389	1.115335	-0.028693	0.000000	0.000000	-0.000000	-0.200000	0.000000	0.302000	0.000000	0.000000	-0.000000
0.496000	-15.560973	523.666809	-12.594748	-0.158027	0.000000	-0.234355	-0.045439	1.529147	-0.036778	0.000000	0.000000	-0.000000	-0.200000	0.000000	0.302000	0.000000	0.000000	-0.000000
0.497000	-15.917317	521.917175	-12.063933	-0.158459	0.000000	-0.233948	-0.039840	1.306329	-0.030195	0.000000	0.000000	-0.000000	-0.200000	0.000000	0.302000	0.000000	0.000000	-0.000000
0.498000	-15.382802	516.318420	-11.710056	-0.157298	0.000000	-0.233502	-0.041444	1.391068	-0.031549	0.000000	0.000000	-0.000000	-0.200000	0.000000	0.302000	0.000000	0.000000	-0.000000
0.499000	-14.670116	512.819214	-11.179241	-0.157793	0.000000	-0.232418	-0.039700	1.387774	-0.030253	0.000000	0.000000	-0.000000	-0.200000	0.000000	0.302000	0.000000	0.000000	-0.000000
0.500000	-13.779257	522.966919	-11.975463	-0.158128	0.000000	-0.232397	-0.031254	1.186204	-0.027163	0.614724	0.000000	1.154064	-0.230052	0.000000	0.421107	0.026003	-0.242885	0.048817
0.501000	-15.560973	525.766296	-11.886995	-0.157860	0.000000	-0.232422	-0.038676	1.306782	-0.029545	0.000000	0.000000	-0.000000	-0.200000	0.000000	0.302000	0.000000	0.000000	-0.000000
0.502000	-15.026459	525.416382	-11.798525	-0.158668	0.000000	-0.232548	-0.036665	1.282031	-0.028789	0.000000	0.000000	-0.000000	-0.200000	0.000000	0.302000	0.000000	0.000000	-0.000000
0.503000	-14.848287	525.416382	-11.444648	-0.157840	0.000000	-0.230707	-0.033114	1.171746	-0.025523	0.000000	0.000000	-0.000000	-0.200000	0.000000	0.302000	0.000000	0.000000	-0.000000
0.504000	-14.046515	515.618591	-10.029141	-0.157465	0.000000	-0.230462	-0.035077	1.287616	-0.025045	0.000000	0.000000	-0.000000	-0.200000	0.000000	0.302000	0.000000	0.000000	-0.000000
0.505000	-13.066571	527.515930	-10.825363	-0.158503	0.000000	-0.230965	-0.023931	0.966132	-0.019826	0.000000	0.000000	-0.000000	-0.200000	0.000000	0.302000	0.000000	0.000000	-0.000000
0.506000	-15.560973	529.615479	-10.736894	-0.157628	0.000000	-0.231255	-0.032596	1.109411	-0.022491	0.000000	0.000000	-0.000000	-0.200000	0.000000	0.302000	0.000000	0.000000	-0.000000
0.507000	-14.937372	528.215759	-10.648425	-0.158622	0.000000	-0.231245	-0.031627	1.118391	-0.022546	0.000000	0.000000	-0.000000	-0.200000	0.000000	0.302000	0.000000	0.000000	-0.000000
